<?xml version="1.0" encoding="utf-8"?>
<!-- Generator: Adobe Illustrator 19.1.0, SVG Export Plug-In . SVG Version: 6.00 Build 0)  -->
<svg version="1.1" id="Layer_1" xmlns="http://www.w3.org/2000/svg" xmlns:xlink="http://www.w3.org/1999/xlink" x="0px" y="0px"
	 viewBox="-270 361.1 70.9 70.9" style="enable-background:new -270 361.1 70.9 70.9;" xml:space="preserve">
<style type="text/css">
	.st0{fill:#9493C8;}
	.st1{fill:none;}
	.st2{enable-background:new    ;}
</style>
<rect x="-219.8" y="407.1" class="st0" width="9.6" height="9.6"/>
<g>
	<rect x="-259" y="359.8" class="st1" width="54" height="72.2"/>
	<path class="st0" d="M-220.7,395.3c0-4.4-1-7.7-3.1-10.1c-2.1-2.4-5.1-3.5-9.3-3.5s-7.5,1.3-10.1,4c-2.5,2.6-3.9,5.8-4.3,9.7
		H-220.7z"/>
	<g class="st2">
		<path d="M-214.2,400.5h-33c0,2.8,0.4,5.1,1.2,7.2c0.8,2,2,3.7,3.4,5c1.4,1.3,3,2.2,4.9,2.9c1.9,0.6,4,1,6.3,1c3,0,6.1-0.6,9.2-1.8
			c3.1-1.2,5.3-2.4,6.6-3.6h0.4v8.2c-2.5,1.1-5.1,2-7.8,2.7s-5.4,1.1-8.3,1.1c-7.4,0-13.2-2-17.4-6s-6.2-9.7-6.2-17.1
			c0-7.3,2-13.1,6-17.4c4-4.3,9.2-6.4,15.8-6.4c6,0,10.7,1.8,14,5.3s4.9,8.5,4.9,15V400.5z M-221.5,394.7c0-4-1-7-3-9.2
			c-2-2.2-4.9-3.2-8.9-3.2c-4,0-7.2,1.2-9.6,3.6c-2.4,2.4-3.7,5.3-4.1,8.8H-221.5z"/>
	</g>
</g>
</svg>
