<?xml version="1.0" encoding="utf-8"?>
<!-- Generator: Adobe Illustrator 19.1.0, SVG Export Plug-In . SVG Version: 6.00 Build 0)  -->
<svg version="1.1" id="Layer_1" xmlns="http://www.w3.org/2000/svg" xmlns:xlink="http://www.w3.org/1999/xlink" x="0px" y="0px"
	 viewBox="-270 361.1 70.9 70.9" style="enable-background:new -270 361.1 70.9 70.9;" xml:space="preserve">
<style type="text/css">
	.st0{fill:#A6CA3B;}
	.st1{fill:none;}
	.st2{enable-background:new    ;}
</style>
<rect x="-220.7" y="403.7" class="st0" width="9.6" height="9.6"/>
<rect x="-258.2" y="359.8" class="st1" width="54" height="72.2"/>
<path class="st0" d="M-219.9,396.6c-0.4-3.9-1.2-7.1-2.6-9.5c-2.4-4.4-6.6-6.6-12.4-6.6c-4.1,0-7.7,1.5-10.5,4.5
	c-2.7,3-4.1,7-4.3,11.6H-219.9z"/>
<g class="st2">
	<path d="M-225.2,377.7c2.9,1.5,5.2,3.4,6.7,5.7c1.5,2.2,2.5,4.9,3,7.8c0.4,2,0.7,5.3,0.7,9.8h-32.3c0.1,4.5,1.2,8.2,3.2,10.9
		c2,2.7,5,4.1,9.2,4.1c3.9,0,7-1.3,9.3-3.9c1.3-1.5,2.2-3.2,2.7-5.2h7.3c-0.2,1.6-0.8,3.5-1.9,5.5c-1.1,2-2.3,3.6-3.7,4.9
		c-2.3,2.2-5,3.7-8.4,4.5c-1.8,0.4-3.8,0.7-6.1,0.7c-5.5,0-10.2-2-14-6c-3.8-4-5.7-9.7-5.7-16.9c0-7.1,1.9-12.9,5.8-17.4
		c3.8-4.5,8.9-6.7,15.1-6.7C-231.2,375.4-228.2,376.2-225.2,377.7z M-222.6,395.1c-0.3-3.2-1-5.8-2.1-7.8c-2-3.6-5.4-5.4-10.2-5.4
		c-3.4,0-6.3,1.2-8.6,3.7s-3.5,5.6-3.7,9.4H-222.6z"/>
</g>
</svg>
