<?xml version="1.0" encoding="utf-8"?>
<!-- Generator: Adobe Illustrator 19.1.0, SVG Export Plug-In . SVG Version: 6.00 Build 0)  -->
<svg version="1.1" id="Layer_1" xmlns="http://www.w3.org/2000/svg" xmlns:xlink="http://www.w3.org/1999/xlink" x="0px" y="0px"
	 viewBox="-270 361.1 70.9 70.9" style="enable-background:new -270 361.1 70.9 70.9;" xml:space="preserve">
<style type="text/css">
	.st0{fill:#A6CA3B;}
	.st1{fill:none;}
	.st2{enable-background:new    ;}
</style>
<circle class="st0" cx="-214.1" cy="419" r="5.5"/>
<circle class="st0" cx="-249.7" cy="388.6" r="6.1"/>
<rect x="-259" y="359.7" class="st1" width="52.8" height="85"/>
<path class="st0" d="M-246.7,414.6c1.9,1.4,3.9,2.2,6.5,2.2c3,0,6-0.7,8.8-2.1c4.9-2.3,7.2-6.1,7.2-11.5v-7c-1,0.7-2.4,1.3-4.1,1.7
	s-3.2,0.8-4.9,0.9l-5.2,0.6c-3.1,0.5-5.4,1-7.1,2c-2.7,1.5-4.1,3.9-4.1,7.2C-249.5,411.1-248.6,413.1-246.7,414.6z"/>
<g class="st2">
	<path d="M-229.7,393.9c1.7-0.2,2.9-0.9,3.4-2.2c0.3-0.7,0.5-1.6,0.5-2.9c0-2.6-0.9-4.4-2.7-5.6c-1.8-1.2-4.4-1.7-7.8-1.7
		c-3.9,0-6.7,1.1-8.3,3.2c-0.9,1.2-1.5,2.9-1.8,5.2h-7c0.1-5.5,1.9-9.3,5.3-11.5s7.4-3.2,11.9-3.2c5.2,0,9.5,1,12.7,3
		c3.2,2,4.9,5.1,4.9,9.3v25.6c0,0.8,0.2,1.4,0.5,1.9c0.3,0.5,1,0.7,2,0.7c0.3,0,0.7,0,1.1-0.1c0.4,0,0.9-0.1,1.3-0.2v5.5
		c-1.2,0.3-2,0.5-2.7,0.6c-0.6,0.1-1.4,0.1-2.5,0.1c-2.6,0-4.4-0.9-5.6-2.7c-0.6-1-1-2.3-1.3-4.1c-1.5,2-3.7,3.7-6.6,5.2
		s-6,2.2-9.4,2.2c-4.1,0-7.5-1.3-10.1-3.8c-2.6-2.5-3.9-5.6-3.9-9.4c0-4.1,1.3-7.3,3.9-9.6s5.9-3.7,10.1-4.2L-229.7,393.9z
		 M-245.4,414.1c1.6,1.2,3.4,1.9,5.6,1.9c2.6,0,5.2-0.6,7.6-1.8c4.2-2,6.2-5.3,6.2-9.9v-6c-0.9,0.6-2.1,1.1-3.5,1.5
		s-2.8,0.7-4.2,0.8l-4.5,0.6c-2.7,0.4-4.7,0.9-6.1,1.7c-2.3,1.3-3.5,3.4-3.5,6.2C-247.8,411.1-247,412.8-245.4,414.1z"/>
</g>
</svg>
