<?xml version="1.0" encoding="utf-8"?>
<!-- Generator: Adobe Illustrator 19.1.0, SVG Export Plug-In . SVG Version: 6.00 Build 0)  -->
<svg version="1.1" id="Layer_1" xmlns="http://www.w3.org/2000/svg" xmlns:xlink="http://www.w3.org/1999/xlink" x="0px" y="0px"
	 viewBox="-270 361.2 70.8 70.8" style="enable-background:new -270 361.2 70.8 70.8;" xml:space="preserve">
<style type="text/css">
	.st0{fill:#F4CA14;}
</style>
<path class="st0" d="M-235.6,423.9c4.7,0,8.2-1.4,10.7-4c2.5-2.6,3.7-6.5,3.7-11.7c0-4.7-1.4-8.6-4.2-11.5
	c-2.8-2.9-6.2-4.4-10.3-4.4c-2.9,0-5.4,0.5-7.4,1.5c-1.2,0.6-1.9,1.2-2,1.6c-0.1,0.5-0.2,3.8-0.2,9.8c0,7.2,0.1,11.4,0.4,12.7
	c0.5,1.9,1.5,3.2,2.8,4.1C-239.8,423.3-237.6,423.9-235.6,423.9z"/>
<g>
	<path d="M-256.4,369.2V369c0-0.3,0.1-0.7,0.4-1.2c3.2-0.6,6.6-1.4,10.2-2.6c0.2,0,0.5,0,1,0c0.1,0.5,0.2,0.8,0.2,0.9v13.1v4.2v4.7
		l-0.1,3.8c0,0.1,0,0.6,0.1,1.5l3.6-1.4c0.4-0.1,1.6-0.5,3.8-1.1c2.7-0.4,4.3-0.7,4.7-0.7c2.9,0,5.6,0.5,7.9,1.4
		c1.4,0.6,2.9,1.6,4.3,2.9c1.4,1.3,2.4,2.8,3.1,4.3c1.2,2.8,1.8,5.2,1.8,7.2c0,3.2-0.2,5.4-0.6,6.6c-1,2.9-2.2,5.2-3.6,6.9
		c-1.4,1.7-3.4,3.1-6,4.4c-2.6,1.2-5.3,1.8-8.2,1.8c-2.7,0-5.2-0.5-7.6-1.5s-3.7-1.5-4-1.5c-0.9,0-2.1,1.2-3.5,3.6h-1.3
		c-0.1-2-0.2-4.4-0.2-7.2l0.1-6.5v-3.3l0.1-9.6l-0.1-1.8l0.2-4.5v-3.9v-1.6c0-0.3,0-1.6,0-3.8v-2.6c0.1-5.1-0.1-8-0.7-8.8
		C-251.7,371.2-253.6,370.1-256.4,369.2z M-235.5,423.2c4.5,0,7.8-1.3,10.2-3.8c2.4-2.5,3.5-6.2,3.5-11.2c0-4.5-1.3-8.2-4-11
		s-5.9-4.2-9.8-4.2c-2.8,0-5.2,0.5-7.1,1.4c-1.1,0.6-1.8,1.1-1.9,1.5c-0.1,0.5-0.2,3.6-0.2,9.4c0,6.9,0.1,10.9,0.4,12.1
		c0.5,1.8,1.4,3.1,2.7,3.9C-239.5,422.6-237.4,423.2-235.5,423.2z"/>
</g>
</svg>
