<?xml version="1.0" encoding="utf-8"?>
<!-- Generator: Adobe Illustrator 19.1.0, SVG Export Plug-In . SVG Version: 6.00 Build 0)  -->
<svg version="1.1" id="Layer_1" xmlns="http://www.w3.org/2000/svg" xmlns:xlink="http://www.w3.org/1999/xlink" x="0px" y="0px"
	 viewBox="-270 361.1 70.9 70.9" style="enable-background:new -270 361.1 70.9 70.9;" xml:space="preserve">
<style type="text/css">
	.st0{fill:#F79428;}
</style>
<circle class="st0" cx="-214.3" cy="419.6" r="5.7"/>
<circle class="st0" cx="-246.2" cy="389.9" r="7.7"/>
<path class="st0" d="M-228.1,398.5c-2.6,0.8-4.7,1.5-6.7,2.2c-1.9,0.8-3.7,1.6-5.3,2.7c-1.5,1-2.7,2.3-3.6,3.6c-0.9,1.4-1.3,3-1.3,5
	c0,2.5,0.6,4.3,1.9,5.5c1.3,1.2,2.9,1.7,5,1.7c2.2,0,4-0.5,5.6-1.5c1.6-1.1,3-2.3,4.1-3.7L-228.1,398.5z"/>
<g>
	<path d="M-214.3,421.2c-1.3,0.5-2.4,0.9-3.4,1.1c-1,0.3-2.1,0.4-3.3,0.4c-2.2,0-3.9-0.5-5.2-1.5s-2.1-2.5-2.5-4.4h-0.2
		c-1.8,2-3.7,3.5-5.8,4.6c-2.1,1.1-4.5,1.6-7.5,1.6c-3.1,0-5.6-0.9-7.6-2.8c-2-1.9-3-4.3-3-7.4c0-1.6,0.2-3,0.7-4.2
		c0.4-1.2,1.1-2.4,2-3.4c0.7-0.8,1.6-1.6,2.7-2.2c1.1-0.6,2.2-1.2,3.2-1.6c1.2-0.5,3.8-1.3,7.6-2.6c3.8-1.3,6.4-2.3,7.7-3v-4.1
		c0-0.4-0.1-1.1-0.2-2.1c-0.2-1-0.5-2-1-2.9c-0.6-1-1.3-1.9-2.3-2.7s-2.4-1.1-4.3-1.1c-1.3,0-2.5,0.2-3.5,0.6
		c-1.1,0.4-1.9,0.9-2.3,1.3c0,0.6,0.1,1.4,0.4,2.4c0.3,1.1,0.4,2.1,0.4,3c0,1-0.4,1.9-1.3,2.7c-0.9,0.8-2.1,1.2-3.6,1.2
		c-1.4,0-2.4-0.5-3.1-1.5s-1-2.1-1-3.3c0-1.3,0.4-2.5,1.3-3.7c0.9-1.2,2.1-2.2,3.5-3.1c1.2-0.8,2.8-1.4,4.5-2
		c1.8-0.5,3.5-0.8,5.2-0.8c2.3,0,4.4,0.2,6.1,0.5c1.7,0.3,3.3,1,4.7,2.1c1.4,1,2.5,2.4,3.2,4.2s1.1,4,1.1,6.8c0,4,0,7.5-0.1,10.5
		c-0.1,3.1-0.1,6.4-0.1,10c0,1.1,0.2,1.9,0.6,2.6c0.4,0.6,0.9,1.2,1.7,1.6c0.4,0.2,1.1,0.4,2,0.4c0.9,0,1.8,0,2.8,0v2.8H-214.3z
		 M-228.7,399.3c-2.4,0.7-4.4,1.4-6.2,2c-1.8,0.7-3.4,1.5-4.9,2.5c-1.4,0.9-2.5,2.1-3.3,3.3c-0.8,1.3-1.2,2.8-1.2,4.6
		c0,2.3,0.6,4,1.8,5.1c1.2,1.1,2.7,1.6,4.6,1.6c2,0,3.7-0.5,5.2-1.4c1.5-1,2.8-2.1,3.8-3.4L-228.7,399.3z"/>
</g>
</svg>
