<?xml version="1.0" encoding="utf-8"?>
<!-- Generator: Adobe Illustrator 19.1.0, SVG Export Plug-In . SVG Version: 6.00 Build 0)  -->
<svg version="1.1" id="Layer_1" xmlns="http://www.w3.org/2000/svg" xmlns:xlink="http://www.w3.org/1999/xlink" x="0px" y="0px"
	 viewBox="-270 361.2 70.8 70.8" style="enable-background:new -270 361.2 70.8 70.8;" xml:space="preserve">
<style type="text/css">
	.st0{fill:#F79428;}
</style>
<path class="st0" d="M-223.9,403.9c0-1.9-0.2-3.9-0.6-5.9c-0.4-2-1.1-3.8-1.9-5.2c-0.9-1.5-2-2.7-3.4-3.7s-3.1-1.4-5.2-1.4
	c-1.8,0-3.4,0.3-4.7,1.1c-1.4,0.8-2.6,1.7-3.7,2.9V414c0.1,0.6,0.4,1.4,0.9,2.2c0.4,0.9,1.1,1.6,1.8,2.4c0.8,0.8,1.6,1.3,2.7,1.7
	c1,0.4,2.2,0.6,3.7,0.6c3.1,0,5.7-1.5,7.6-4.6C-224.9,413.4-223.9,409.3-223.9,403.9z"/>
<g>
	<path d="M-217.1,403.7c0,5.3-1.7,9.8-5.1,13.5c-3.4,3.6-7.3,5.5-11.7,5.5c-2,0-3.9-0.3-5.8-0.9s-3.7-1.4-5.3-2.4l-2.7,4.2l-2.2-0.5
		c0.1-1.8,0.2-3.9,0.3-6.4c0-2.5,0.1-4.9,0.1-7.3V374c0-0.8-0.2-1.6-0.6-2.5c-0.4-0.8-0.8-1.4-1.4-1.8c-0.5-0.3-1.3-0.5-2.3-0.7
		c-1.1-0.2-1.9-0.3-2.6-0.3v-2.3l13.1-0.8l0.5,0.6v23.5l0.3,0.1c1.5-1.6,3.1-2.8,4.9-3.6c1.8-0.8,3.5-1.2,5.2-1.2
		c4.4,0,8,1.7,11,5.2C-218.5,393.6-217.1,398.1-217.1,403.7z M-224.6,403.9c0-1.8-0.2-3.6-0.6-5.5c-0.4-1.9-1-3.5-1.8-4.8
		c-0.8-1.4-1.9-2.5-3.2-3.4s-2.9-1.3-4.8-1.3c-1.7,0-3.2,0.3-4.4,1c-1.3,0.7-2.4,1.6-3.4,2.7v20.7c0.1,0.6,0.4,1.3,0.8,2
		c0.4,0.8,1,1.5,1.7,2.2c0.7,0.7,1.5,1.2,2.5,1.6c0.9,0.4,2,0.6,3.4,0.6c2.9,0,5.3-1.4,7.1-4.3
		C-225.5,412.8-224.6,408.9-224.6,403.9z"/>
</g>
</svg>
