<?xml version="1.0" encoding="utf-8"?>
<!-- Generator: Adobe Illustrator 19.1.0, SVG Export Plug-In . SVG Version: 6.00 Build 0)  -->
<svg version="1.1" id="Layer_1" xmlns="http://www.w3.org/2000/svg" xmlns:xlink="http://www.w3.org/1999/xlink" x="0px" y="0px"
	 viewBox="0 0 70.9 70.9" style="enable-background:new 0 0 70.9 70.9;" xml:space="preserve">
<style type="text/css">
	.st0{clip-path:url(#SVGID_2_);}
	.st1{clip-path:url(#SVGID_2_);fill:#FFFFFF;}
	.st2{clip-path:url(#SVGID_2_);fill:#EF3B24;}
</style>
<g>
	<defs>
		<rect id="SVGID_1_" x="-0.1" y="0" width="70.9" height="70.9"/>
	</defs>
	<clipPath id="SVGID_2_">
		<use xlink:href="#SVGID_1_"  style="overflow:visible;"/>
	</clipPath>
	<path class="st0" d="M35.4,70.7c19.5,0,35.3-15.8,35.3-35.3S54.9,0.1,35.4,0.1S0.1,15.9,0.1,35.4S15.9,70.7,35.4,70.7"/>
	<path class="st1" d="M70.9,35.3c-19.5,0-35.6,16.1-35.6,35.6h0c0-19.5-15.8-35.6-35.3-35.6v0c19.5,0,35.6-15.8,35.6-35.3h0
		C35.6,19.5,51.4,35.3,70.9,35.3L70.9,35.3z"/>
	<path class="st1" d="M70.9,35.3c-19.5,0-35.6,16.1-35.6,35.6h0c0-19.5-15.8-35.6-35.3-35.6v0c19.5,0,35.6-15.8,35.6-35.3h0
		C35.6,19.5,51.4,35.3,70.9,35.3L70.9,35.3z"/>
	<path class="st0" d="M35.4,37.6c1.2,0,2.2-1,2.2-2.2c0-1.2-1-2.2-2.2-2.2c-1.2,0-2.2,1-2.2,2.2C33.2,36.6,34.2,37.6,35.4,37.6"/>
	<path class="st2" d="M33.2,0.1c0,1.2,1,2.2,2.2,2.2c1.2,0,2.2-1,2.2-2.2"/>
	<path class="st2" d="M37.6,70.7c0-1.2-1-2.2-2.2-2.2c-1.2,0-2.2,1-2.2,2.2"/>
	<path class="st2" d="M70.7,33.3c-1.2,0-2.2,1-2.2,2.2c0,1.2,1,2.2,2.2,2.2"/>
	<path class="st2" d="M0.1,37.6c1.2,0,2.2-1,2.2-2.2c0-1.2-1-2.2-2.2-2.2"/>
</g>
</svg>
