<?xml version="1.0" encoding="utf-8"?>
<!-- Generator: Adobe Illustrator 19.1.0, SVG Export Plug-In . SVG Version: 6.00 Build 0)  -->
<svg version="1.1" id="Layer_1" xmlns="http://www.w3.org/2000/svg" xmlns:xlink="http://www.w3.org/1999/xlink" x="0px" y="0px"
	 viewBox="-270 361.1 70.9 70.9" style="enable-background:new -270 361.1 70.9 70.9;" xml:space="preserve">
<style type="text/css">
	.st0{fill:#9493C8;}
	.st1{fill:none;}
	.st2{enable-background:new    ;}
</style>
<circle class="st0" cx="-219.1" cy="422.2" r="6.1"/>
<circle class="st0" cx="-247.6" cy="381.7" r="7.6"/>
<path class="st0" d="M-221.8,411.7v-14.5c-2.6,0.1-5.8,0.4-9.3,0.7c-3.6,0.4-6.4,0.8-8.5,1.4c-2.5,0.7-4.5,1.9-6,3.4
	c-1.5,1.5-2.3,3.6-2.3,6.2c0,3,0.9,5.3,2.6,6.8c1.7,1.5,4.5,2.2,8.2,2.2c3,0,5.9-0.6,8.3-1.8C-226.3,414.9-224,413.4-221.8,411.7z"
	/>
<rect x="-258" y="359.6" class="st1" width="52.8" height="85"/>
<g class="st2">
	<path d="M-215.9,421.9h-7.5v-4.8c-0.7,0.5-1.6,1.1-2.7,1.9c-1.1,0.8-2.2,1.5-3.3,1.9c-1.3,0.6-2.7,1.1-4.3,1.5
		c-1.6,0.4-3.5,0.6-5.7,0.6c-4,0-7.4-1.3-10.2-4c-2.8-2.7-4.2-6.1-4.2-10.2c0-3.4,0.7-6.1,2.2-8.2c1.5-2.1,3.5-3.7,6.2-4.9
		c2.7-1.2,6-2,9.8-2.4c3.8-0.4,7.9-0.7,12.3-1v-1.2c0-1.7-0.3-3.1-0.9-4.2c-0.6-1.1-1.5-2-2.6-2.6c-1.1-0.6-2.3-1-3.8-1.2
		c-1.5-0.2-3.1-0.3-4.7-0.3c-2,0-4.2,0.3-6.6,0.8c-2.4,0.5-4.9,1.3-7.5,2.3h-0.4v-7.6c1.5-0.4,3.6-0.8,6.4-1.3
		c2.8-0.5,5.5-0.7,8.2-0.7c3.1,0,5.9,0.3,8.2,0.8c2.3,0.5,4.4,1.4,6.1,2.7c1.7,1.2,3,2.8,3.8,4.8c0.9,1.9,1.3,4.4,1.3,7.2V421.9z
		 M-223.3,410.9v-12.5c-2.3,0.1-5,0.3-8.1,0.6c-3.1,0.3-5.6,0.7-7.4,1.2c-2.2,0.6-3.9,1.6-5.2,2.9c-1.3,1.3-2,3.1-2,5.3
		c0,2.6,0.8,4.5,2.3,5.8c1.5,1.3,3.9,1.9,7.1,1.9c2.6,0,5.1-0.5,7.2-1.5S-225.2,412.3-223.3,410.9z"/>
</g>
</svg>
