<?xml version="1.0" encoding="utf-8"?>
<!-- Generator: Adobe Illustrator 19.1.0, SVG Export Plug-In . SVG Version: 6.00 Build 0)  -->
<svg version="1.1" id="Layer_1" xmlns="http://www.w3.org/2000/svg" xmlns:xlink="http://www.w3.org/1999/xlink" x="0px" y="0px"
	 viewBox="-270 361.2 70.8 70.8" style="enable-background:new -270 361.2 70.8 70.8;" xml:space="preserve">
<style type="text/css">
	.st0{fill:none;}
	.st1{fill:#A6CA3B;}
	.st2{enable-background:new    ;}
</style>
<rect x="-255.3" y="368.1" class="st0" width="45.5" height="67.2"/>
<path class="st1" d="M-225,414.4c2-3.1,3-7.3,3-12.5c0-4.6-1-8.3-3-11.5c-2-3-4.9-4.6-8.7-4.6c-3.3,0-6.3,1.2-8.8,3.7
	c-2.6,2.4-3.8,6.6-3.8,12.2c0,4.1,0.6,7.5,1.6,10c1.9,4.8,5.6,7.2,10.8,7.2C-229.9,419.1-226.9,417.5-225,414.4z"/>
<g class="st2">
	<path d="M-251.1,368h6.4v19.5c1.4-1.9,3.2-3.3,5.2-4.3c2-1,4.2-1.5,6.5-1.5c4.9,0,8.9,1.7,11.9,5c3.1,3.4,4.6,8.3,4.6,14.8
		c0,6.2-1.5,11.4-4.5,15.5s-7.2,6.2-12.5,6.2c-3,0-5.5-0.7-7.6-2.2c-1.2-0.9-2.5-2.2-3.9-4.1v5h-6.1V368z M-225.9,413.2
		c1.8-2.8,2.7-6.6,2.7-11.2c0-4.1-0.9-7.5-2.7-10.3c-1.8-2.7-4.4-4.1-7.8-4.1c-3,0-5.7,1.1-7.9,3.3s-3.4,5.9-3.4,11
		c0,3.7,0.5,6.7,1.4,9c1.7,4.3,5,6.5,9.7,6.5C-230.3,417.4-227.6,416-225.9,413.2z"/>
</g>
</svg>
