<?xml version="1.0" encoding="utf-8"?>
<!-- Generator: Adobe Illustrator 19.1.0, SVG Export Plug-In . SVG Version: 6.00 Build 0)  -->
<svg version="1.1" id="Layer_1" xmlns="http://www.w3.org/2000/svg" xmlns:xlink="http://www.w3.org/1999/xlink" x="0px" y="0px"
	 viewBox="-270 361.2 70.8 70.8" style="enable-background:new -270 361.2 70.8 70.8;" xml:space="preserve">
<style type="text/css">
	.st0{fill:none;}
	.st1{fill:#9493C8;}
	.st2{enable-background:new    ;}
</style>
<rect x="-257.8" y="365.6" class="st0" width="59.7" height="89.5"/>
<path class="st1" d="M-221.4,401.5c0-5.1-0.8-9-2.5-11.7c-1.7-2.7-4.5-3.9-8.2-3.9c-2.1,0-4.2,0.4-6.4,1.4c-2.1,1-4.1,2.1-5.9,3.5
	v24.5c2,1,3.8,1.6,5.3,1.9c1.5,0.3,3.2,0.5,5,0.5c4,0,7.1-1.3,9.3-3.9C-222.4,411.2-221.4,407.1-221.4,401.5z"/>
<g class="st2">
	<path d="M-215.6,401.4c0,3.4-0.5,6.4-1.4,9.1c-1,2.7-2.2,5-3.8,6.8c-1.7,1.9-3.6,3.3-5.6,4.3c-2,1-4.3,1.4-6.8,1.4
		c-2.3,0-4.3-0.3-6-0.8c-1.7-0.5-3.4-1.3-5.1-2.2l-0.4,1.9h-6.4v-56.2h6.8v20.1c1.9-1.6,3.9-2.8,6.1-3.8c2.1-1,4.6-1.5,7.2-1.5
		c4.8,0,8.5,1.8,11.3,5.5C-217,389.5-215.6,394.7-215.6,401.4z M-222.7,401.5c0-4.8-0.8-8.5-2.4-11c-1.6-2.5-4.2-3.7-7.7-3.7
		c-2,0-4,0.4-6,1.3c-2,0.9-3.9,2-5.6,3.3v23.1c1.9,0.9,3.6,1.5,5,1.8c1.4,0.3,3,0.5,4.7,0.5c3.8,0,6.7-1.2,8.8-3.7
		C-223.7,410.7-222.7,406.8-222.7,401.5z"/>
</g>
</svg>
