<?xml version="1.0" encoding="utf-8"?>
<!-- Generator: Adobe Illustrator 19.1.0, SVG Export Plug-In . SVG Version: 6.00 Build 0)  -->
<svg version="1.1" id="Layer_1" xmlns="http://www.w3.org/2000/svg" xmlns:xlink="http://www.w3.org/1999/xlink" x="0px" y="0px"
	 viewBox="-270 361 71 71" style="enable-background:new -270 361 71 71;" xml:space="preserve">
<style type="text/css">
	.st0{fill:#F4CA14;}
</style>
<rect x="-221.6" y="403.1" class="st0" width="9.6" height="9.6"/>
<path class="st0" d="M-245.6,389.6h2.7c2,0,7.7-0.3,17.2-0.9c1.5-0.1,2.4-0.2,2.8-0.5c0.7-0.7,1-1.4,1-2c0-1.2-0.3-2.6-1.2-4
	c-0.8-1.5-2-2.7-3.5-3.5c-1.6-0.8-3.4-1.2-5.5-1.2c-4.4,0-7.9,1.6-10.6,4.9C-244.5,385-245.6,387.3-245.6,389.6z"/>
<g>
	<path d="M-216.7,390.5l-19.6,0.1h-3.7c-1.5,0-3,0.1-4.6,0.2c-0.3,1-0.4,1.6-0.4,2v0.5v0.5v2.4c0,2,0.6,4.4,1.9,7.3s3,5.1,5.4,6.6
		c2.3,1.5,5.2,2.3,8.7,2.4c1.9-0.1,3.3-0.3,4.4-0.7c1.1-0.4,2.7-1.2,4.7-2.5l3.5-2.9l0.3,2c0,0.2,0,0.5,0,0.7
		c-1.5,1.9-3.3,3.5-5.6,4.9c-2.2,1.4-4.5,2.4-6.8,3.1c-1.1,0.3-2.9,0.4-5.5,0.4c-2.3,0-4.6-0.5-6.8-1.4c-3.3-1.4-5.9-3.7-7.8-6.9
		c-1.9-3.2-2.9-7-2.9-11.5c0-1.4,0.3-3.3,0.8-5.5c0.5-2.2,1.5-4.6,2.9-7.2c0.9-1.7,2.1-3.1,3.5-4.2c2-1.6,3.7-2.7,5.1-3.3
		c2.1-0.9,4.6-1.3,7.4-1.3c3,0,5.5,0.6,7.4,1.7c2.6,1.5,4.5,3.4,5.8,5.7c1.3,2.3,1.9,4.4,1.9,6.3
		C-216.7,389.9-216.7,390.5-216.7,390.5z M-243.9,388.7h2.3c1.7,0,6.6-0.3,14.8-0.8c1.3-0.1,2.1-0.2,2.4-0.4
		c0.6-0.6,0.9-1.2,0.9-1.7c0-1-0.3-2.2-1-3.4c-0.7-1.3-1.7-2.3-3-3c-1.4-0.7-2.9-1-4.7-1c-3.8,0-6.8,1.4-9.1,4.2
		C-243,384.8-243.9,386.8-243.9,388.7z"/>
</g>
</svg>
