<?xml version="1.0" encoding="utf-8"?>
<!-- Generator: Adobe Illustrator 19.1.0, SVG Export Plug-In . SVG Version: 6.00 Build 0)  -->
<svg version="1.1" id="Layer_1" xmlns="http://www.w3.org/2000/svg" xmlns:xlink="http://www.w3.org/1999/xlink" x="0px" y="0px"
	 viewBox="-270 361.1 70.9 70.9" style="enable-background:new -270 361.1 70.9 70.9;" xml:space="preserve">
<style type="text/css">
	.st0{fill:#F79428;}
</style>
<rect x="-222.7" y="407.1" class="st0" width="9.6" height="9.6"/>
<path class="st0" d="M-224.7,397.7c0-1.7-0.1-3.6-0.5-5.7c-0.3-2-0.8-3.6-1.5-5c-0.7-1.5-1.7-2.6-3-3.5s-2.8-1.4-4.9-1.4
	c-3.3,0-6,1.4-8.2,4.1c-2.2,2.7-3.4,6.6-3.5,11.5H-224.7z"/>
<g>
	<path d="M-216.8,412.4c-1.7,3.3-4,5.9-6.9,7.8c-2.9,1.9-6.2,2.9-9.9,2.9c-3.3,0-6.2-0.6-8.7-1.7c-2.5-1.2-4.5-2.7-6.1-4.7
		c-1.6-2-2.8-4.3-3.6-7c-0.8-2.7-1.2-5.5-1.2-8.4c0-2.7,0.4-5.3,1.3-7.8c0.8-2.6,2.1-4.9,3.7-6.9c1.6-2,3.5-3.5,5.9-4.8
		c2.3-1.2,5-1.8,7.9-1.8c3,0,5.5,0.5,7.7,1.4c2.1,0.9,3.9,2.2,5.2,3.9c1.3,1.5,2.2,3.4,2.8,5.5c0.6,2.1,0.9,4.4,0.9,6.8v2.7h-27.1
		c0,2.7,0.3,5.1,0.8,7.3c0.5,2.2,1.3,4.1,2.4,5.8c1.1,1.6,2.5,2.9,4.2,3.8c1.7,0.9,3.8,1.4,6.2,1.4c2.5,0,4.6-0.6,6.4-1.7
		c1.8-1.2,3.5-3.2,5.2-6.2L-216.8,412.4z M-226,396.8c0-1.5-0.1-3.2-0.4-5c-0.3-1.8-0.7-3.2-1.3-4.4c-0.6-1.3-1.5-2.3-2.6-3.1
		c-1.1-0.8-2.5-1.2-4.3-1.2c-2.9,0-5.3,1.2-7.2,3.6c-1.9,2.4-3,5.8-3.1,10.1H-226z"/>
</g>
</svg>
